<svg width="450" height="450" viewBox="0 0 450 450" fill="none" xmlns="http://www.w3.org/2000/svg">
<g clip-path="url(#clip0_1_2)">
<path d="M225 450C349.264 450 450 349.264 450 225C450 100.736 349.264 0 225 0C100.736 0 0 100.736 0 225C0 349.264 100.736 450 225 450Z" fill="#D0D0D0"/>
<path d="M48.9043 288.603L50.7024 292.854L39.7901 297.475L54.8808 302.736L57.1426 308.084L43.9067 303.292L33.3345 319.419L31.083 314.107L39.5377 301.865L34.3752 299.773L26.4357 303.138L24.6376 298.887L48.894 288.614L48.9043 288.603Z" fill="white"/>
<path d="M58.477 310.413L67.5036 326.132L63.825 328.244L57.0808 316.497L51.3413 319.795L57.5445 330.599L54.2162 332.51L48.013 321.706L41.5367 325.426L48.4355 337.436L44.8135 339.517L35.6324 323.53L58.477 310.413Z" fill="white"/>
<path d="M68.3177 355.18C66.8699 356.267 65.4788 357.004 64.1444 357.395C62.81 357.787 61.5323 357.879 60.3061 357.684C59.0798 357.483 57.9206 356.988 56.818 356.2C55.7206 355.411 54.685 354.376 53.7216 353.088C52.7994 351.857 52.1244 350.61 51.7019 349.342C51.2743 348.075 51.1352 346.818 51.2743 345.571C51.4134 344.324 51.8514 343.103 52.5881 341.918C53.3249 340.728 54.4068 339.6 55.8391 338.528L69.0699 328.615L71.8366 332.309L58.6058 342.222C56.8129 343.567 55.8082 344.891 55.5867 346.205C55.3651 347.513 55.8597 348.976 57.0705 350.589C58.307 352.238 59.5796 353.129 60.8934 353.258C62.2072 353.392 63.7528 352.789 65.5303 351.46L78.7611 341.547L81.5484 345.267L68.3177 355.18V355.18Z" fill="white"/>
<path d="M83.6093 347.956L88.6069 352.944L79.1527 371.558L97.4325 361.738L102.43 366.726L83.8257 385.376L80.7962 382.357L96.0672 366.947L75.7007 377.272L73.104 374.681L83.3517 354.263L68.0343 369.621L65.0048 366.602L83.6093 347.951V347.956Z" fill="white"/>
<path d="M113.878 385.67C114.213 385.072 114.409 384.434 114.471 383.764C114.533 383.089 114.471 382.429 114.28 381.78C114.089 381.131 113.785 380.503 113.373 379.9C112.961 379.297 112.436 378.761 111.802 378.287C110.73 377.488 109.664 377.02 108.597 376.875C107.531 376.731 106.5 376.839 105.501 377.195C104.501 377.55 103.543 378.122 102.621 378.9C101.699 379.683 100.854 380.59 100.086 381.626C99.3543 382.605 98.7566 383.635 98.2929 384.712C97.8292 385.789 97.5716 386.86 97.5253 387.927C97.4789 388.993 97.6695 390.013 98.1075 390.982C98.5402 391.956 99.2925 392.837 100.364 393.635C101.091 394.176 101.853 394.542 102.657 394.733C103.461 394.923 104.244 394.959 105.011 394.836C105.779 394.717 106.505 394.455 107.201 394.053C107.897 393.651 108.505 393.141 109.025 392.512L112.647 395.212C111.606 396.381 110.473 397.299 109.252 397.953C108.031 398.607 106.768 399.009 105.475 399.158C104.177 399.308 102.884 399.205 101.585 398.844C100.287 398.484 99.0503 397.865 97.8705 396.984C96.366 395.861 95.2222 394.573 94.4443 393.12C93.6663 391.667 93.2284 390.132 93.1305 388.519C93.0326 386.907 93.2593 385.268 93.8054 383.604C94.3515 381.94 95.1965 380.343 96.33 378.818C97.5047 377.241 98.8236 375.933 100.282 374.902C101.74 373.872 103.265 373.166 104.862 372.79C106.454 372.414 108.061 372.372 109.684 372.682C111.307 372.986 112.868 373.702 114.378 374.82C115.465 375.634 116.382 376.571 117.119 377.643C117.856 378.715 118.376 379.848 118.67 381.044C118.963 382.239 119.02 383.46 118.84 384.707C118.659 385.954 118.201 387.164 117.464 388.339L113.873 385.66L113.878 385.67Z" fill="white"/>
<path d="M124.863 383.182L128.892 385.438L123.817 394.501L133.709 400.04L138.784 390.977L142.844 393.249L129.974 416.233L125.914 413.961L131.617 403.77L121.725 398.231L116.022 408.422L111.993 406.165L124.863 383.176V383.182Z" fill="white"/>
<path d="M146.342 394.826L163.123 401.683L161.515 405.609L148.975 400.488L146.471 406.614L158.006 411.328L156.554 414.878L145.018 410.163L142.194 417.078L155.018 422.317L153.436 426.182L136.373 419.211L146.337 394.826H146.342Z" fill="white"/>
<path d="M161.376 415.28C161.886 413.378 162.628 411.678 163.602 410.184C164.575 408.69 165.735 407.469 167.074 406.526C168.414 405.583 169.898 404.955 171.515 404.64C173.133 404.326 174.849 404.409 176.668 404.898C178.481 405.382 180.017 406.171 181.274 407.258C182.531 408.345 183.505 409.628 184.195 411.117C184.885 412.6 185.282 414.239 185.375 416.022C185.473 417.804 185.267 419.649 184.757 421.55C184.267 423.384 183.535 425.038 182.572 426.501C181.609 427.964 180.454 429.149 179.125 430.056C177.791 430.963 176.312 431.571 174.684 431.87C173.056 432.174 171.335 432.081 169.522 431.597C167.708 431.112 166.173 430.334 164.926 429.278C163.674 428.217 162.7 426.954 162.005 425.491C161.309 424.028 160.907 422.42 160.799 420.669C160.696 418.917 160.887 417.124 161.376 415.29V415.28ZM165.9 416.49C165.585 417.67 165.41 418.85 165.374 420.025C165.343 421.199 165.498 422.292 165.848 423.296C166.198 424.306 166.755 425.182 167.517 425.924C168.28 426.666 169.305 427.212 170.593 427.557C171.881 427.902 173.051 427.938 174.097 427.671C175.143 427.397 176.065 426.918 176.869 426.233C177.672 425.548 178.352 424.687 178.914 423.652C179.47 422.616 179.908 421.509 180.223 420.329C180.557 419.082 180.743 417.856 180.784 416.65C180.825 415.444 180.671 414.337 180.32 413.327C179.97 412.317 179.409 411.441 178.636 410.694C177.863 409.947 176.832 409.401 175.544 409.056C174.256 408.711 173.087 408.669 172.046 408.927C171.005 409.185 170.083 409.669 169.29 410.364C168.491 411.065 167.811 411.951 167.244 413.013C166.678 414.079 166.229 415.233 165.894 416.48L165.9 416.49Z" fill="white"/>
<path d="M190.707 409.056L195.421 409.659L204.417 430.494L206.906 411.132L211.146 411.678L207.792 437.805L203.011 437.192L194.082 416.367L191.593 435.729L187.353 435.182L190.707 409.056V409.056Z" fill="white"/>
<path d="M225.474 412.183L230.085 411.92L230.673 422.292L241.992 421.653L241.404 411.282L246.047 411.019L247.536 437.321L242.893 437.583L242.234 425.924L230.915 426.563L231.574 438.222L226.963 438.485L225.474 412.183V412.183Z" fill="white"/>
<path d="M250.38 410.21L254.944 409.535L258.808 435.595L254.244 436.27L250.38 410.21Z" fill="white"/>
<path d="M284.106 419.293C284.976 422.853 284.61 425.8 282.998 428.124C281.39 430.453 279.165 431.962 276.331 432.658C274.507 433.106 272.791 433.163 271.184 432.833C269.576 432.503 268.124 431.864 266.815 430.911C265.511 429.963 264.393 428.742 263.456 427.258C262.523 425.775 261.828 424.11 261.374 422.261C260.905 420.349 260.741 418.5 260.874 416.722C261.008 414.94 261.431 413.317 262.147 411.848C262.858 410.38 263.847 409.118 265.115 408.061C266.382 407.005 267.928 406.253 269.752 405.81C271.024 405.496 272.292 405.408 273.549 405.542C274.806 405.676 275.975 406.016 277.063 406.552C278.15 407.088 279.113 407.809 279.948 408.711C280.788 409.612 281.426 410.684 281.87 411.926L277.552 412.982C276.939 411.802 276.053 410.916 274.888 410.313C273.729 409.71 272.353 409.602 270.772 409.993C269.473 410.313 268.433 410.833 267.644 411.565C266.856 412.297 266.279 413.157 265.918 414.156C265.558 415.156 265.383 416.259 265.398 417.464C265.414 418.67 265.573 419.901 265.882 421.153C266.171 422.338 266.588 423.456 267.124 424.502C267.66 425.548 268.325 426.429 269.118 427.14C269.911 427.856 270.818 428.356 271.843 428.639C272.869 428.923 274.028 428.907 275.326 428.593C277.258 428.119 278.649 427.222 279.489 425.898C280.329 424.574 280.587 422.951 280.257 421.029L280.113 420.437L274.672 421.766L273.791 418.17L283.255 415.851L284.095 419.283L284.106 419.293Z" fill="white"/>
<path d="M283.436 402.894L287.738 401.214L291.52 410.89L302.081 406.763L298.3 397.087L302.633 395.392L312.226 419.927L307.893 421.622L303.643 410.746L293.081 414.873L297.331 425.749L293.029 427.428L283.436 402.894Z" fill="white"/>
<path d="M327.389 402.734C327.816 403.43 328.327 403.945 328.919 404.285C329.512 404.625 330.15 404.816 330.831 404.862C331.511 404.908 332.216 404.816 332.953 404.589C333.69 404.362 334.416 404.027 335.127 403.589C335.627 403.28 336.127 402.914 336.622 402.487C337.116 402.064 337.523 401.601 337.843 401.101C338.157 400.601 338.348 400.065 338.409 399.499C338.471 398.932 338.311 398.334 337.93 397.721C337.564 397.123 337.121 396.701 336.616 396.459C336.106 396.217 335.524 396.088 334.87 396.083C334.215 396.078 333.484 396.17 332.68 396.376C331.876 396.582 330.995 396.83 330.032 397.129C328.806 397.51 327.646 397.829 326.549 398.077C325.452 398.329 324.426 398.427 323.468 398.381C322.51 398.334 321.618 398.077 320.799 397.613C319.98 397.149 319.254 396.392 318.61 395.351C317.883 394.176 317.486 393.027 317.404 391.904C317.327 390.781 317.481 389.73 317.873 388.746C318.264 387.762 318.841 386.855 319.604 386.026C320.366 385.196 321.242 384.48 322.226 383.872C323.344 383.182 324.483 382.672 325.642 382.326C326.802 381.986 327.93 381.863 329.022 381.961C330.119 382.058 331.155 382.393 332.139 382.97C333.118 383.547 333.973 384.428 334.695 385.603L330.939 387.916C330.186 386.783 329.223 386.196 328.038 386.154C326.858 386.113 325.539 386.536 324.097 387.427C323.612 387.726 323.185 388.071 322.803 388.463C322.422 388.859 322.134 389.282 321.933 389.735C321.737 390.189 321.644 390.657 321.66 391.137C321.675 391.616 321.83 392.09 322.113 392.553C322.505 393.187 323.004 393.604 323.617 393.8C324.231 393.996 324.921 394.048 325.689 393.96C326.456 393.872 327.306 393.682 328.229 393.393C329.151 393.105 330.13 392.801 331.16 392.486C332.175 392.152 333.18 391.92 334.174 391.786C335.169 391.652 336.106 391.657 336.998 391.801C337.884 391.945 338.703 392.26 339.45 392.744C340.197 393.228 340.846 393.908 341.392 394.795C342.15 396.026 342.583 397.226 342.686 398.386C342.789 399.545 342.634 400.653 342.217 401.704C341.805 402.755 341.15 403.744 340.269 404.656C339.383 405.573 338.327 406.413 337.096 407.17C335.9 407.907 334.674 408.453 333.422 408.814C332.17 409.174 330.944 409.288 329.749 409.164C328.553 409.035 327.43 408.644 326.374 407.994C325.323 407.34 324.395 406.366 323.602 405.078L327.389 402.744V402.734Z" fill="white"/>
<path d="M351.923 373.485C351.429 373.011 350.867 372.656 350.228 372.424C349.595 372.192 348.94 372.084 348.26 372.104C347.58 372.125 346.9 372.259 346.21 372.501C345.524 372.749 344.87 373.114 344.252 373.609C343.206 374.444 342.48 375.355 342.073 376.35C341.666 377.344 341.506 378.37 341.593 379.426C341.686 380.482 341.99 381.554 342.51 382.646C343.031 383.733 343.696 384.784 344.499 385.794C345.262 386.747 346.107 387.587 347.029 388.313C347.956 389.04 348.925 389.555 349.945 389.874C350.965 390.189 352.001 390.261 353.047 390.091C354.098 389.921 355.144 389.416 356.184 388.581C356.89 388.014 357.441 387.37 357.828 386.639C358.214 385.907 358.451 385.16 358.529 384.387C358.606 383.614 358.539 382.842 358.328 382.069C358.116 381.296 357.776 380.58 357.302 379.91L360.832 377.092C361.702 378.395 362.295 379.725 362.619 381.074C362.944 382.424 363.011 383.743 362.825 385.036C362.64 386.33 362.207 387.556 361.532 388.72C360.852 389.885 359.94 390.925 358.791 391.842C357.323 393.017 355.788 393.79 354.18 394.176C352.578 394.563 350.981 394.594 349.399 394.279C347.817 393.965 346.287 393.331 344.819 392.378C343.345 391.425 342.021 390.204 340.831 388.72C339.605 387.18 338.677 385.577 338.049 383.903C337.425 382.228 337.132 380.575 337.168 378.936C337.204 377.298 337.58 375.732 338.286 374.243C338.992 372.754 340.079 371.419 341.547 370.25C342.608 369.405 343.752 368.761 344.978 368.318C346.205 367.875 347.431 367.663 348.662 367.679C349.894 367.694 351.089 367.952 352.248 368.441C353.407 368.936 354.464 369.683 355.412 370.693L351.908 373.49L351.923 373.485Z" fill="white"/>
<path d="M352.315 362.223L355.52 358.899L362.99 366.113L370.868 357.957L363.397 350.744L366.628 347.4L385.577 365.7L382.347 369.044L373.944 360.935L366.066 369.09L374.469 377.2L371.265 380.523L352.315 362.223Z" fill="white"/>
<path d="M379.081 353.418C377.494 352.248 376.185 350.939 375.149 349.486C374.114 348.034 373.403 346.509 373.016 344.917C372.63 343.325 372.584 341.717 372.882 340.094C373.181 338.471 373.887 336.905 375 335.39C376.113 333.881 377.406 332.737 378.874 331.964C380.343 331.191 381.894 330.753 383.532 330.65C385.165 330.547 386.835 330.779 388.53 331.341C390.225 331.902 391.863 332.768 393.45 333.932C394.98 335.06 396.248 336.343 397.262 337.776C398.272 339.208 398.958 340.712 399.318 342.284C399.679 343.855 399.699 345.452 399.39 347.08C399.076 348.703 398.365 350.275 397.247 351.784C396.134 353.299 394.851 354.443 393.409 355.216C391.966 355.994 390.436 356.437 388.818 356.555C387.2 356.669 385.557 356.457 383.893 355.916C382.223 355.375 380.626 354.541 379.096 353.412L379.081 353.418ZM381.863 349.646C382.847 350.373 383.877 350.965 384.959 351.424C386.041 351.882 387.113 352.135 388.179 352.176C389.246 352.217 390.261 352.021 391.234 351.578C392.203 351.14 393.084 350.383 393.878 349.311C394.671 348.235 395.129 347.163 395.258 346.091C395.387 345.02 395.279 343.984 394.934 342.984C394.588 341.985 394.037 341.037 393.28 340.14C392.523 339.244 391.652 338.435 390.668 337.709C389.627 336.941 388.555 336.323 387.448 335.838C386.34 335.359 385.253 335.097 384.186 335.055C383.12 335.014 382.1 335.215 381.121 335.663C380.147 336.111 379.261 336.869 378.467 337.946C377.674 339.022 377.21 340.089 377.071 341.155C376.932 342.222 377.045 343.252 377.406 344.247C377.767 345.246 378.339 346.199 379.127 347.116C379.915 348.034 380.827 348.873 381.863 349.641V349.646Z" fill="white"/>
<path d="M395.145 331.268C393.414 330.326 391.94 329.208 390.714 327.909C389.488 326.611 388.576 325.199 387.978 323.674C387.381 322.149 387.118 320.562 387.19 318.914C387.262 317.265 387.746 315.616 388.648 313.968C389.545 312.319 390.673 311.01 392.023 310.047C393.373 309.083 394.851 308.439 396.459 308.115C398.066 307.79 399.746 307.795 401.503 308.115C403.26 308.439 405.001 309.073 406.732 310.016C408.401 310.928 409.834 312.02 411.029 313.303C412.224 314.586 413.105 315.982 413.677 317.492C414.249 319.001 414.486 320.583 414.399 322.232C414.311 323.885 413.816 325.534 412.92 327.183C412.018 328.831 410.911 330.14 409.586 331.109C408.262 332.077 406.804 332.727 405.217 333.061C403.631 333.396 401.977 333.407 400.251 333.097C398.525 332.788 396.825 332.18 395.155 331.268H395.145ZM397.386 327.157C398.458 327.739 399.565 328.187 400.694 328.497C401.827 328.806 402.925 328.909 403.986 328.801C405.047 328.698 406.031 328.363 406.933 327.796C407.835 327.229 408.602 326.364 409.241 325.189C409.88 324.014 410.189 322.891 410.174 321.809C410.158 320.732 409.906 319.717 409.432 318.774C408.953 317.832 408.278 316.966 407.402 316.183C406.526 315.4 405.552 314.715 404.481 314.127C403.347 313.509 402.198 313.04 401.039 312.716C399.875 312.391 398.762 312.283 397.7 312.386C396.639 312.489 395.655 312.829 394.748 313.406C393.841 313.983 393.069 314.854 392.43 316.028C391.791 317.203 391.477 318.326 391.482 319.398C391.492 320.475 391.739 321.479 392.234 322.417C392.729 323.355 393.424 324.225 394.331 325.029C395.233 325.833 396.253 326.539 397.386 327.157V327.157Z" fill="white"/>
<path d="M395.949 301.087L397.664 296.764L418.268 304.946L422.879 293.333L426.759 294.874L420.432 310.804L395.949 301.082V301.087Z" fill="white"/>
<path d="M49.0074 119.53L49.7956 118.01L53.2991 119.834L40.2435 144.91L36.7401 143.086L46.8898 123.59L40.6299 120.329L31.2891 138.274L27.7856 136.45L38.0951 116.645C38.8576 115.177 39.9344 114.806 41.3152 115.527L49.0022 119.53H49.0074ZM54.5253 122.405L65.4685 128.103L55.1745 147.877C54.4017 149.366 53.3197 149.748 51.9338 149.026L43.0669 144.41L54.5253 122.405V122.405ZM55.9164 128.289L48.7034 142.143L52.6087 144.178L59.8217 130.324L55.9164 128.289Z" fill="white"/>
<path d="M95.2583 63.1861L94.8977 73.9541L90.2092 73.9902L90.8326 62.1866L85.7629 66.0816L83.3568 62.9491L88.9521 58.6471L87.4631 56.7098L91.1211 53.8968L92.6101 55.834L98.1229 51.5989L100.529 54.7314L95.4592 58.6264L107.057 61.0428L105.789 65.587L95.2635 63.1861H95.2583ZM100.787 47.7863L104.445 44.9732L122.714 68.7453L106.201 81.4351C105.609 81.8884 105.037 82.0688 104.476 81.9709C103.914 81.873 103.43 81.5536 103.017 81.0177L97.5046 73.8408L101.163 71.0277L105.676 76.9012L116.676 68.4465L107.242 56.174L102.92 59.4972L100.534 56.3956L104.857 53.0724L100.792 47.7811L100.787 47.7863Z" fill="white"/>
<path d="M195.215 34.5504L197.261 34.097L198.111 37.9508L170.5 44.0304L169.65 40.1766L179.105 38.0951L176.76 27.4456L181.263 26.4564L183.608 37.1059L190.707 35.5448L186.622 16.9815L167.27 21.2424L166.42 17.3886L187.817 12.6795C188.636 12.4992 189.29 12.5404 189.775 12.8031C190.264 13.0659 190.599 13.6275 190.79 14.493L195.21 34.5607L195.215 34.5504Z" fill="white"/>
<path d="M282.864 30.5678L282.009 34.4216L276.243 33.1439C276.65 33.9991 276.908 34.8956 277.021 35.8384C277.135 36.7813 277.083 37.7293 276.872 38.6876C276.589 39.9602 276.079 41.0782 275.342 42.0365C274.605 42.9948 273.709 43.7676 272.663 44.3601C271.612 44.9526 270.432 45.3339 269.113 45.5039C267.799 45.6791 266.423 45.6069 264.991 45.2875C263.559 44.9681 262.296 44.458 261.199 43.747C260.102 43.036 259.21 42.1962 258.52 41.2173C257.83 40.2384 257.366 39.1564 257.129 37.9714C256.892 36.7864 256.912 35.5654 257.191 34.3134C257.402 33.3602 257.752 32.4741 258.242 31.6652C258.731 30.8563 259.319 30.1453 260.004 29.5322L254.378 28.2802L255.233 24.4264L282.864 30.5626V30.5678ZM259.576 23.396C258.85 23.2362 258.34 22.9323 258.041 22.484C257.747 22.0358 257.665 21.5051 257.804 20.892L259.839 11.716L284.059 17.0949L283.209 20.9178L263.492 16.5384L262.714 20.0522L282.431 24.4316L281.576 28.2854L259.571 23.4011L259.576 23.396ZM265.846 41.4337C266.599 41.5985 267.335 41.6346 268.062 41.5316C268.788 41.4285 269.443 41.2173 270.03 40.8927C270.612 40.5681 271.122 40.1405 271.55 39.5995C271.977 39.0637 272.276 38.43 272.436 37.7035C272.601 36.9513 272.606 36.2351 272.446 35.5602C272.287 34.8801 272.008 34.2619 271.606 33.7106C271.205 33.1542 270.7 32.6853 270.092 32.2989C269.484 31.9125 268.809 31.6394 268.057 31.4694C267.304 31.3045 266.578 31.2736 265.877 31.3767C265.171 31.4849 264.533 31.7064 263.955 32.0413C263.378 32.3762 262.884 32.8244 262.477 33.3757C262.07 33.927 261.781 34.571 261.622 35.2975C261.462 36.0239 261.452 36.7195 261.585 37.3841C261.725 38.0487 261.982 38.6515 262.363 39.2028C262.745 39.7541 263.229 40.2178 263.827 40.599C264.424 40.9803 265.094 41.2585 265.846 41.4234V41.4337Z" fill="white"/>
<path d="M363.902 66.0919L367.39 68.7813L365 71.8778L361.512 69.1884L348.75 85.7319L345.097 82.9137L350.069 76.4684L334.823 64.706L337.235 61.5786L352.48 73.341L363.619 58.8995L367.272 61.7177L363.902 66.0868V66.0919ZM342.119 48.8476L344.448 45.8336L350.007 50.1254L351.542 48.1315L355.195 50.9497L353.66 52.9436L359.332 57.3178L357.003 60.3318L354.901 58.7089C354.901 59.4714 354.778 60.2184 354.53 60.9346C354.283 61.6559 353.912 62.3411 353.412 62.9852C352.83 63.7425 352.109 64.3402 351.254 64.7833C350.398 65.2263 349.471 65.4943 348.466 65.5922C347.462 65.69 346.436 65.5818 345.375 65.283C344.314 64.979 343.304 64.4587 342.346 63.7168C341.403 62.9903 340.661 62.1608 340.12 61.2283C339.574 60.2957 339.229 59.3426 339.079 58.374C338.93 57.4054 338.961 56.4471 339.182 55.4939C339.399 54.5459 339.8 53.6907 340.383 52.9333C340.867 52.3047 341.429 51.7792 342.073 51.3464C342.717 50.9137 343.402 50.5994 344.144 50.4087L342.124 48.8528L342.119 48.8476ZM344.54 60.8676C344.983 61.2077 345.452 61.4498 345.952 61.5838C346.452 61.7177 346.941 61.7589 347.426 61.7074C347.91 61.6559 348.374 61.5116 348.817 61.2798C349.26 61.0479 349.636 60.7285 349.95 60.3215C350.28 59.899 350.507 59.4405 350.635 58.951C350.764 58.4616 350.79 57.967 350.718 57.4724C350.646 56.9726 350.481 56.5037 350.223 56.0555C349.966 55.6073 349.615 55.2106 349.172 54.8705C348.271 54.175 347.323 53.9019 346.339 54.0513C345.354 54.2059 344.52 54.7211 343.835 55.6073C343.196 56.4368 342.917 57.3435 343 58.3173C343.082 59.2962 343.598 60.1463 344.535 60.8728L344.54 60.8676Z" fill="white"/>
<path d="M401.441 147.285L402.42 149.176L398.885 151.01L385.845 125.847L389.385 124.012L391.812 128.696L401.492 123.678L403.584 127.712L393.903 132.73L395.557 135.924L405.238 130.906L407.33 134.94L397.649 139.958L399.323 143.184L416.171 134.451L407.088 116.923L410.591 115.104L420.72 134.652C421.086 135.352 421.21 135.95 421.096 136.445C420.983 136.934 420.576 137.362 419.875 137.728L401.446 147.28L401.441 147.285Z" fill="white"/>
<path d="M225 402.039C322.776 402.039 402.039 322.776 402.039 225C402.039 127.224 322.776 47.9615 225 47.9615C127.224 47.9615 47.9615 127.224 47.9615 225C47.9615 322.776 127.224 402.039 225 402.039Z" fill="white"/>
<path d="M225 396.603C319.774 396.603 396.603 319.774 396.603 225C396.603 130.226 319.774 53.397 225 53.397C130.226 53.397 53.397 130.226 53.397 225C53.397 319.774 130.226 396.603 225 396.603Z" fill="#D0D0D0"/>
<path d="M427.027 231.033C429.957 231.033 432.333 228.657 432.333 225.726C432.333 222.796 429.957 220.42 427.027 220.42C424.096 220.42 421.72 222.796 421.72 225.726C421.72 228.657 424.096 231.033 427.027 231.033Z" fill="white"/>
<path d="M25.5856 231.033C28.5164 231.033 30.8924 228.657 30.8924 225.726C30.8924 222.796 28.5164 220.42 25.5856 220.42C22.6548 220.42 20.2789 222.796 20.2789 225.726C20.2789 228.657 22.6548 231.033 25.5856 231.033Z" fill="white"/>
<path d="M119.762 132.338C119.762 132.338 105.192 136.254 102.131 158.537L100.787 162.576L95.5211 152.045C95.5211 152.045 87.561 163.432 95.5211 178.002C95.5211 178.002 93.8518 182.794 92.4761 189.172C92.4761 189.172 87.1952 180.13 81.0435 174.617C81.0435 174.617 75.1649 191.006 89.2148 207.261C89.2148 207.261 88.5708 214.974 88.4781 218.462C88.4781 218.462 80.9507 211.022 74.4281 207.354C74.4281 207.354 71.7644 223.238 88.5708 236.458C88.5708 236.458 89.1221 243.805 89.9464 248.947C89.9464 248.947 81.6824 243.161 75.2576 241.42C75.2576 241.42 75.5307 257.304 94.3567 267.222C94.3567 267.222 96.9276 275.672 98.5814 278.423C98.5814 278.423 89.8588 274.935 83.1559 274.291C83.1559 274.291 87.9319 291.55 108.772 297.795C108.772 297.795 112.74 303.947 113.837 304.956C113.837 304.956 107.227 303.668 98.5969 303.947C98.5969 303.947 104.913 319.465 128.603 322.036L133.194 326.261C133.194 326.261 126.125 325.895 118.412 327.456C118.412 327.456 129.154 342.516 151.468 340.769L162.03 347.658C162.03 347.658 154.41 348.853 145.961 353.258C145.961 353.258 161.201 365.927 183.7 355.736C183.7 355.736 185.627 338.657 165.06 329.841L166.621 344.716L154.869 337.369C154.869 337.369 159.094 322.129 143.209 310.284C143.209 310.284 140.912 322.036 140.731 326.261C140.731 326.261 137.058 323.504 133.018 319.65C133.018 319.65 139.077 304.039 125.398 290.541C125.398 290.541 121.081 303.761 120.622 306.059C120.622 306.059 114.656 298.253 113.734 296.6C113.734 296.6 122.915 283.467 112.266 266.3C112.266 266.3 106.021 277.042 104.553 279.979C104.553 279.979 101.889 275.295 99.4109 267.31C99.4109 267.31 111.622 257.943 105.377 240.405C105.377 240.405 99.04 246.371 95.1862 250.323C95.1862 250.323 93.9909 246.005 93.5323 237.376C93.5323 237.376 107.397 229.57 104.002 212.125L93.2593 219.286L94.1763 206.705C94.1763 206.705 106.758 201.929 107.397 184.942C107.397 184.942 102.255 186.962 97.3861 189.259L99.7716 180.171C99.7716 180.171 110.514 178.703 114.553 165.39C114.553 165.39 108.216 166.307 103.991 167.224L108.489 156.116C108.489 156.116 123.853 151.984 119.752 132.333L119.762 132.338Z" fill="white"/>
<path d="M330.233 132.338C330.233 132.338 344.803 136.254 347.864 158.537L349.208 162.576L354.474 152.045C354.474 152.045 362.434 163.432 354.474 178.002C354.474 178.002 356.143 182.794 357.519 189.172C357.519 189.172 362.8 180.13 368.951 174.617C368.951 174.617 374.83 191.006 360.78 207.261C360.78 207.261 361.424 214.974 361.517 218.462C361.517 218.462 369.044 211.022 375.567 207.354C375.567 207.354 378.23 223.238 361.424 236.458C361.424 236.458 360.873 243.805 360.048 248.947C360.048 248.947 368.313 243.161 374.737 241.42C374.737 241.42 374.464 257.304 355.638 267.222C355.638 267.222 353.067 275.672 351.413 278.423C351.413 278.423 360.136 274.935 366.839 274.291C366.839 274.291 362.063 291.55 341.222 297.795C341.222 297.795 337.255 303.947 336.158 304.956C336.158 304.956 342.768 303.668 351.398 303.947C351.398 303.947 345.081 319.465 321.392 322.036L316.801 326.261C316.801 326.261 323.87 325.895 331.583 327.456C331.583 327.456 320.84 342.516 298.526 340.769L287.965 347.658C287.965 347.658 295.585 348.853 304.034 353.258C304.034 353.258 288.794 365.927 266.295 355.736C266.295 355.736 264.368 338.657 284.935 329.841L283.374 344.716L295.126 337.369C295.126 337.369 290.901 322.129 306.785 310.284C306.785 310.284 309.083 322.036 309.264 326.261C309.264 326.261 312.937 323.504 316.976 319.65C316.976 319.65 310.917 304.039 324.596 290.541C324.596 290.541 328.914 303.761 329.372 306.059C329.372 306.059 335.339 298.253 336.261 296.6C336.261 296.6 327.08 283.467 337.729 266.3C337.729 266.3 343.974 277.042 345.442 279.979C345.442 279.979 348.106 275.295 350.584 267.31C350.584 267.31 338.373 257.943 344.618 240.405C344.618 240.405 350.955 246.371 354.809 250.323C354.809 250.323 356.004 246.005 356.463 237.376C356.463 237.376 342.598 229.57 345.993 212.125L356.736 219.286L355.819 206.705C355.819 206.705 343.237 201.929 342.598 184.942C342.598 184.942 347.74 186.962 352.609 189.259L350.223 180.171C350.223 180.171 339.481 178.703 335.442 165.39C335.442 165.39 341.779 166.307 345.998 167.224L341.501 156.116C341.501 156.116 326.137 151.984 330.238 132.333L330.233 132.338Z" fill="white"/>
<path d="M212.645 165.353V180.181H237.638V165.353H212.645V165.353ZM233.784 174.524H216.803V169.692H233.784V174.524Z" fill="white"/>
<path d="M250.802 137.588V130.973H229.307V123.806H222.692V130.973H199.497V137.588H209.033V156.605H201.233V182.201H206.298V161.742H243.914V177.106H241.312L243.914 182.206H248.978V156.61H241.317V137.594H250.807L250.802 137.588ZM234.702 149.026H215.649V143.833H234.702V149.026ZM215.649 156.605V152.128H234.702V156.605H215.649ZM234.702 140.731H215.649V137.588H234.702V140.731Z" fill="white"/>
<path d="M179.862 214.557H132.926C132.926 214.557 181.907 238.937 208.982 295.976V239.344C208.982 239.344 211.563 215.371 179.862 214.551V214.557Z" fill="white"/>
<path d="M270.483 214.557C238.777 215.371 241.363 239.349 241.363 239.349V295.981C268.438 238.937 317.419 214.562 317.419 214.562H270.483V214.557Z" fill="white"/>
<path d="M200.414 233.223H201.862V236.561H177.971V233.223H196.545V227.257H179.445V223.918H198.317C199.713 223.918 200.414 224.578 200.414 225.896V233.218V233.223ZM200.414 238.478V248.901H181.572C180.156 248.901 179.445 248.241 179.445 246.922V238.478H200.414V238.478ZM196.545 241.817H183.345V245.537H196.545V241.817Z" fill="#D0D0D0"/>
<path d="M255.882 231.038L250.096 238.066L246.938 235.675L253.435 228.086H248.03V224.748H253.996V222.682H257.897V224.748H263.775V228.086H258.371L264.898 235.675L261.709 238.066L255.892 231.038H255.882ZM267.516 223.568H271.416V248.906H253.816C253.187 248.906 252.708 248.731 252.384 248.375C252.059 248.02 251.894 247.556 251.894 246.989V239.338H255.794V245.598H267.521V232.517H262.915V229.209H267.521V223.568H267.516Z" fill="#D0D0D0"/>
<path d="M123.039 218.251C122.328 217.751 121.627 217.267 120.947 216.793C121.627 217.261 122.333 217.751 123.039 218.251Z" fill="white"/>
<path d="M243.641 312.236C243.275 312.932 242.914 313.627 242.553 314.333C242.909 313.627 243.275 312.937 243.641 312.236Z" fill="white"/>
<path d="M225.103 85.5774C225.103 85.5774 225.036 85.6137 224.928 85.6708C225.031 85.6189 225.093 85.593 225.108 85.5826C225.108 85.5826 225.103 85.5826 225.098 85.5774H225.103Z" fill="white"/>
<path d="M225.113 90.9511C225.113 90.9511 225.021 91.003 224.856 91.0912C225.015 91.0134 225.108 90.9667 225.129 90.9615C225.129 90.9615 225.119 90.9563 225.113 90.9511Z" fill="black"/>
<path d="M328.502 205.108C324.669 165.477 298.604 132.354 262.925 118.361C255.872 108.041 244.12 95.4232 225.124 85.5774C225.124 85.5774 225.113 85.5774 225.113 85.5825C225.093 85.5928 225.036 85.6186 224.933 85.6701C222.738 86.7212 202.088 96.9946 187.508 118.155C151.571 132.029 125.275 165.281 121.421 205.108H101.997C101.997 205.108 109.519 208.941 120.952 216.798C121.709 268.366 159.98 310.85 209.698 318.161C213.068 325.112 216.18 332.386 218.941 340.012V319.099C220.935 319.212 222.944 319.279 224.964 319.279C227.133 319.279 229.281 319.207 231.414 319.073V340.012C234.186 332.361 237.309 325.065 240.688 318.094C290.092 310.603 328.079 268.371 328.976 217.091C328.924 217.127 328.873 217.164 328.826 217.194C328.878 217.158 328.929 217.122 328.976 217.086C340.645 209.033 348.358 205.102 348.358 205.102H328.507L328.502 205.108ZM321.788 205.108H309.083C306.234 181.207 293.441 160.366 274.955 146.831C274.358 143.823 273.559 140.685 272.534 137.408C272.534 137.408 271.565 133.838 268.814 128.335C297.687 142.931 318.306 171.469 321.788 205.108V205.108ZM187.564 125.697C200.682 103.306 222.177 92.3885 224.856 91.0902C225.021 91.0026 225.113 90.9511 225.113 90.9511C225.113 90.9511 225.124 90.9562 225.129 90.9614H225.139C245.408 101.467 256.67 115.414 262.611 125.465C267.093 133.049 268.546 138.418 268.546 138.418C269.087 140.134 269.551 141.808 269.958 143.441C279.185 180.557 255.48 197.235 255.48 197.235C225.654 219.704 197.534 199.255 197.534 199.255C174.148 183.468 177.822 154.549 180.367 143.184C181.037 140.195 181.629 138.413 181.629 138.413C183.257 133.822 185.287 129.582 187.564 125.692V125.697ZM181.609 128.078C180.12 131.025 178.775 134.131 177.61 137.408C177.61 137.408 176.436 140.927 175.462 146.466C156.708 159.99 143.709 180.99 140.834 205.108H128.129C131.627 171.273 152.468 142.596 181.603 128.078H181.609ZM120.947 216.798C121.627 217.267 122.333 217.756 123.039 218.256C122.328 217.756 121.627 217.272 120.947 216.798ZM127.825 221.692C127.145 221.193 126.47 220.698 125.811 220.224C126.475 220.703 127.145 221.187 127.825 221.687C132.241 224.933 137.037 228.658 142.076 232.883C148.243 261.977 169.321 285.548 196.952 295.224C200.069 300.18 203.072 305.343 205.922 310.727C163.318 302.282 130.726 266.042 127.82 221.692H127.825ZM213.624 238.061V317.471C184.803 243.543 117.84 210.244 117.84 210.244H180.949C216.525 211.161 213.624 238.061 213.624 238.061ZM231.409 312.375C229.276 312.515 227.128 312.592 224.959 312.592C222.934 312.592 220.925 312.525 218.936 312.401V299.768C220.925 299.907 222.934 299.985 224.959 299.985C227.128 299.985 229.281 299.892 231.409 299.732V312.375V312.375ZM322.072 222.022C319.042 266.052 286.743 302.03 244.485 310.634C244.202 311.17 243.919 311.701 243.641 312.236C243.919 311.706 244.192 311.165 244.47 310.639C244.475 310.639 244.48 310.639 244.491 310.639C247.36 305.229 250.374 300.021 253.517 295.044C280.741 285.301 301.515 262.034 307.754 233.326C312.813 229.065 317.631 225.304 322.077 222.022C322.536 221.682 322.989 221.352 323.442 221.028C322.994 221.352 322.536 221.692 322.077 222.027L322.072 222.022ZM236.721 317.471V238.061C236.721 238.061 233.821 211.156 269.396 210.244H332.505C332.505 210.244 265.542 243.543 236.721 317.471Z" fill="white"/>
<path d="M264.667 139.402V139.392C264.594 139.129 257.18 112.848 225.273 96.3093L225.16 96.2527L225.046 96.3042C224.758 96.4381 196.014 109.927 185.56 139.381C185.529 139.469 182.469 148.774 182.721 160.212C182.958 170.768 186.153 185.313 200.033 194.685C200.105 194.736 206.545 199.368 216.226 201.439C219.281 202.094 222.388 202.423 225.464 202.423C235.145 202.423 244.326 199.208 252.739 192.866C252.987 192.691 258.69 188.615 263.069 179.955C267.103 171.969 270.658 158.455 264.667 139.402V139.402ZM259.107 176.812C255.233 184.499 250.101 188.224 249.885 188.378C241.111 194.989 232.532 196.952 225.433 196.952C222.388 196.952 219.616 196.591 217.22 196.081C208.596 194.242 202.743 190.074 202.686 190.027C190.29 181.66 187.43 168.651 187.214 159.217C186.977 148.923 189.728 140.572 189.759 140.484C198.678 115.352 222.372 103.157 225.046 101.848L225.165 101.791L225.278 101.853C253.739 116.712 260.431 140.242 260.493 140.479C265.867 157.558 262.704 169.666 259.107 176.812V176.812Z" fill="white"/>
<path d="M265.97 357.076L270.128 334.592C270.303 333.608 269.633 330.733 267.428 330.274C248.782 326.389 237.278 334.123 233.723 336.993C231.265 335.205 228.246 334.149 224.985 334.149C221.723 334.149 218.884 335.143 216.468 336.833C212.702 333.85 201.285 326.456 182.964 330.274C180.758 330.733 180.094 333.602 180.264 334.592L184.422 357.076C184.499 357.508 184.71 357.9 185.019 358.199C185.019 358.199 185.04 358.214 185.05 358.225C185.153 358.322 185.267 358.41 185.395 358.487C186.586 359.363 190.434 361.97 195.71 363.469C185.813 369.096 182.448 381.239 182.448 381.239C180.001 387.546 183.752 388.828 183.752 388.828C186.771 390.972 191.691 386.319 191.691 386.319C202.16 380.013 206.014 387.788 206.014 387.788C208.219 390.663 210.729 390.173 210.729 390.173C214.588 389.38 214.402 385.768 214.402 385.768C216.52 373.279 222.702 369.25 224.593 368.292C224.882 368.179 225.345 368.106 225.881 368.385C227.952 369.492 233.841 373.645 235.892 385.768C235.892 385.768 235.706 389.38 239.565 390.173C239.565 390.173 242.074 390.663 244.279 387.788C244.279 387.788 248.138 380.013 258.602 386.319C258.602 386.319 263.528 390.972 266.542 388.828C266.542 388.828 270.293 387.546 267.845 381.239C267.845 381.239 264.481 368.817 254.646 363.15C257.948 362.284 261.426 360.826 264.914 358.534C265.012 358.482 265.104 358.42 265.192 358.359C265.202 358.353 265.207 358.348 265.218 358.343C265.609 358.034 265.888 357.586 265.975 357.081L265.97 357.076ZM265.733 334.52L262.379 353.686C258.206 351.877 249.504 348.946 240.204 350.811C240.266 347.647 239.869 342.768 237.242 339.651C241.621 336.704 252.76 330.64 265.733 334.52ZM231.306 357.9C229.524 359.178 227.344 359.94 224.985 359.94C222.625 359.94 220.275 359.116 218.457 357.745C216.252 356.086 214.691 353.608 214.237 350.769C214.175 349.899 214.139 348.915 214.155 347.91C214.727 342.438 219.364 338.157 224.985 338.157C230.992 338.157 235.876 343.041 235.876 349.049C235.876 352.696 234.068 355.922 231.306 357.9V357.9ZM210.579 355.123C210.852 356.298 211.233 357.421 211.718 358.482C203.438 362.496 195.36 359.42 190.939 356.957C195.21 355.303 202.856 353.181 210.579 355.123ZM239.369 355.241C247.283 353.093 255.176 355.293 259.519 356.983C250.647 361.445 242.27 360.27 237.953 359.121C238.561 357.915 239.04 356.612 239.369 355.247V355.241ZM184.664 334.514C197.637 330.635 208.776 336.699 213.155 339.646C212.089 340.913 211.393 342.469 210.945 344.087C210.394 345.638 210.095 347.307 210.095 349.043C210.095 349.311 210.115 349.579 210.126 349.842C210.11 350.156 210.1 350.471 210.095 350.79C200.836 348.966 192.181 351.882 188.023 353.68L184.669 334.514H184.664ZM210.09 385.758C206.942 381.167 201.79 379.699 201.79 379.699C193.34 378.292 185.998 385.088 185.998 385.088C189.182 369.539 202.279 364.536 202.279 364.536C202.614 364.546 202.954 364.557 203.299 364.557C206.643 364.557 210.234 363.851 213.866 362.011C214.881 363.294 216.071 364.407 217.395 365.293C218.101 365.767 218.853 366.169 219.631 366.509C211.728 371.811 210.1 385.763 210.1 385.763L210.09 385.758ZM264.296 385.083C264.296 385.083 256.949 378.287 248.504 379.694C248.504 379.694 243.79 380.245 240.204 385.753C240.204 385.753 238.561 371.656 230.549 366.417C231.141 366.143 231.718 365.834 232.275 365.484C233.475 364.727 234.568 363.779 235.531 362.692C237.963 363.444 242.126 364.402 247.201 364.222C249.777 365.365 261.462 371.265 264.29 385.078L264.296 385.083Z" fill="white"/>
</g>
<defs>
<clipPath id="clip0_1_2">
<rect width="450" height="450" fill="white"/>
</clipPath>
</defs>
</svg>
